<?xml version="1.0" encoding="UTF-8" standalone="no"?>
<!-- Created with Inkscape (http://www.inkscape.org/) -->

<svg
   width="263.98529mm"
   height="70.629829mm"
   viewBox="0 0 263.98529 70.62983"
   version="1.1"
   id="SVGRoot"
   xml:space="preserve"
   xmlns="http://www.w3.org/2000/svg"
   xmlns:svg="http://www.w3.org/2000/svg"><defs
     id="defs385" /><g
     id="layer1"
     transform="translate(-13.67813,-60.433932)"><g
       id="g415"
       transform="matrix(0.60346745,0,0,0.60346745,13.67813,60.433932)"><path
         fill="#004c72"
         d="M 56.1,9.96 94.94,32.39 V 67.8 L 84.68,61.88 V 38.31 L 56.1,21.81 v 33.27 l 47.24,27.27 V 27.54 L 56.1,0.26 Z"
         id="path400"
         style="fill:#ffbe0b;fill-opacity:1" /><path
         fill="#6bac00"
         d="M 4.43,89.76 51.67,117.04 99.14,89.63 90.74,84.78 51.67,107.33 21.23,89.76 31.49,83.84 51.67,95.49 80.48,78.86 51.9,62.35 12.83,84.91 Z"
         id="path402"
         style="fill:#333333;fill-opacity:1" /><path
         fill="#00b6bd"
         d="M 47.7,0 0,27.54 V 82.61 L 8.4,77.76 V 32.39 L 39.3,14.55 V 26.4 L 18.66,38.31 V 71.84 L 47.7,55.08 Z"
         id="path404"
         style="fill:#3a86ff;fill-opacity:1" /></g><text
       xml:space="preserve"
       style="font-style:normal;font-variant:normal;font-weight:normal;font-stretch:normal;font-size:15.5949px;font-family:'Nimbus Sans Narrow';-inkscape-font-specification:'Nimbus Sans Narrow, Normal';font-variant-ligatures:normal;font-variant-caps:normal;font-variant-numeric:normal;font-variant-east-asian:normal;fill:#ffbe0b;fill-opacity:1;stroke-width:0.487341"
       x="81.703056"
       y="112.81781"
       id="text533"><tspan
         id="tspan535"
         x="81.703056"
         y="112.81781"
         style="stroke-width:0.487341">Unlock the Potential of Technology</tspan></text><text
       xml:space="preserve"
       style="font-style:normal;font-variant:normal;font-weight:bold;font-stretch:normal;font-size:20.4611px;font-family:Quantum;-inkscape-font-specification:'Quantum Bold';fill:#3a86ff;fill-opacity:1;stroke-width:0.264583"
       x="81.809654"
       y="95.294861"
       id="text280"><tspan
         id="tspan278"
         style="font-size:20.4611px;fill:#3a86ff;fill-opacity:1;stroke-width:0.264583"
         x="81.809654"
         y="95.294861"><tspan
   style="fill:#ffbe0b;fill-opacity:1"
   id="tspan4868">I</tspan>ROO<tspan
   style="fill:#ffbe0b;fill-opacity:1"
   id="tspan4870">T</tspan>SOFTWARE</tspan></text></g></svg>
