<?xml version="1.0" encoding="UTF-8" standalone="no"?>
<svg
   viewBox="0 0 98.800003 98.800003"
   width="98.800003"
   height="98.800003"
   version="1.1"
   id="svg17"
   sodipodi:docname="svgviewer-output.svg"
   inkscape:export-filename="svgviewer-output.png"
   inkscape:export-xdpi="145.74898"
   inkscape:export-ydpi="145.74898"
   xmlns:inkscape="http://www.inkscape.org/namespaces/inkscape"
   xmlns:sodipodi="http://sodipodi.sourceforge.net/DTD/sodipodi-0.dtd"
   xmlns="http://www.w3.org/2000/svg"
   xmlns:svg="http://www.w3.org/2000/svg">
  <sodipodi:namedview
     id="namedview19"
     pagecolor="#ffffff"
     bordercolor="#000000"
     borderopacity="0.25"
     inkscape:showpageshadow="2"
     inkscape:pageopacity="0.0"
     inkscape:pagecheckerboard="0"
     inkscape:deskcolor="#d1d1d1"
     showgrid="false" />
  <defs
     id="defs5">
    <clipPath
       id="a">
      <path
         d="M 0,0 H 150 V 150 H 0 Z"
         id="path2" />
    </clipPath>
  </defs>
  <g
     clip-path="url(#a)"
     id="g15"
     transform="translate(-25.6,-25.6)">
    <g
       style="font-variation-settings:normal;display:block;opacity:1;vector-effect:none;fill:#0073dd;fill-opacity:1;stroke-width:1;stroke-linecap:butt;stroke-linejoin:miter;stroke-miterlimit:4;stroke-dasharray:none;stroke-dashoffset:0;stroke-opacity:1;-inkscape-stroke:none;stop-color:#000000;stop-opacity:1"
       id="g9">
      <path
         fill="#5CB933"
         d="M 0,-38 C 20.972,-38 38,-20.972 38,0 38,20.972 20.972,38 0,38 -20.972,38 -38,20.972 -38,0 -38,-20.972 -20.972,-38 0,-38 Z"
         style="font-variation-settings:normal;vector-effect:none;fill:#0073dd;fill-opacity:1;stroke-width:0.769231;stroke-linecap:butt;stroke-linejoin:miter;stroke-miterlimit:4;stroke-dasharray:none;stroke-dashoffset:0;stroke-opacity:1;-inkscape-stroke:none;stop-color:#000000;stop-opacity:1"
         transform="matrix(1.3,0,0,1.3,75,75)"
         id="path7" />
    </g>
    <g
       style="display:block"
       id="g13">
      <path
         stroke-linecap="round"
         stroke-linejoin="round"
         stroke="#ffffff"
         stroke-width="4.5"
         d="m 0.001,-24.874 v 20.311 m 13.28,-12.625 c 0,0 6.25,4.056 6.25,14.844 a 19.533,19.533 0 0 1 -33.342,13.811 19.533,19.533 0 0 1 -5.72,-13.811 c 0,-10.788 6.25,-14.844 6.25,-14.844"
         fill="none"
         transform="matrix(0.8,0,0,0.8,75,76.875)"
         id="path11" />
    </g>
  </g>
</svg>
