<?xml version="1.0" encoding="UTF-8" standalone="no"?>
<!-- Created with Inkscape (http://www.inkscape.org/) -->

<svg
   width="149.70934mm"
   height="190.56776mm"
   viewBox="0 0 149.70934 190.56776"
   version="1.1"
   id="SVGRoot"
   xmlns="http://www.w3.org/2000/svg"
   xmlns:svg="http://www.w3.org/2000/svg">
  <defs
     id="defs9737" />
  <g
     id="layer1"
     transform="translate(-76.320036,-8.8120119)">
    <path
       id="path1"
       d="m 223.04017,10.490347 c -1.6062,0.922035 -3.31458,1.896186 -3.7965,2.165006 -0.48192,0.269333 -0.96382,0.554665 -1.07116,0.634124 -0.18526,0.138284 -2.57622,1.530879 -5.39135,3.140701 -1.29507,0.740416 -2.14385,1.226975 -3.49104,2.000929 -0.38749,0.222899 -1.43853,0.831741 -2.33631,1.353385 -0.89726,0.521644 -1.98235,1.148546 -2.4106,1.393116 -0.42826,0.245086 -1.28166,0.73835 -1.89619,1.096433 -0.61452,0.358082 -2.45446,1.425106 -4.08905,2.371909 -1.63408,0.946287 -4.37283,2.543209 -6.08637,3.548316 -1.71354,1.005623 -3.5096,2.034982 -3.99153,2.28729 -0.48191,0.252824 -1.31416,0.725968 -1.84973,1.052061 -2.04015,1.24142 -4.36616,2.587065 -4.47244,2.587065 -0.0608,0 -0.48141,0.23425 -0.93441,0.520614 -1.1016,0.696041 -5.03998,2.983846 -5.13698,2.983846 -0.0424,0 -0.62277,0.330222 -1.28942,0.733192 -0.66663,0.402973 -1.38742,0.837935 -1.60156,0.96641 -0.48708,0.292038 -2.03138,1.175893 -3.30993,1.89412 -0.53507,0.301327 -1.06085,0.615037 -1.16816,0.697074 -0.1069,0.08255 -0.58871,0.364274 -1.07063,0.626389 -0.48191,0.261594 -1.40188,0.78427 -2.04481,1.160938 -2.37757,1.394646 -5.08744,2.952362 -5.93828,3.414149 -0.48191,0.261609 -0.96382,0.546423 -1.07063,0.633107 -0.10726,0.08659 -1.15885,0.70481 -2.33681,1.373506 -3.20365,1.819305 -3.23461,1.836836 -4.28358,2.47665 -0.53506,0.327113 -2.15623,1.269273 -3.60198,2.094837 -1.44574,0.825035 -3.21447,1.838902 -3.93116,2.252717 -0.71616,0.413288 -1.63665,0.939061 -2.04427,1.167633 -0.40813,0.22908 -1.76099,1.019034 -3.00602,1.755848 -1.24557,0.736793 -2.32032,1.339438 -2.38843,1.339438 -0.068,0 -0.58201,0.293084 -1.14287,0.65167 -1.41529,0.905538 -4.76136,2.852791 -4.9012,2.852791 -0.0634,0 -0.57426,0.293082 -1.1346,0.651163 -0.88593,0.565495 -2.47665,1.488564 -4.99974,2.900781 -2.24755,1.257924 -5.36245,3.241818 -6.22981,3.967788 -1.04844,0.87767 -3.01583,2.682018 -3.15877,2.897174 -0.0711,0.107255 -0.35652,0.457653 -0.63462,0.778584 -6.37273,7.367527 -8.39277,19.084148 -4.80059,27.843219 5.17363,12.61596 17.98204,19.54025 31.33736,16.94028 3.69331,-0.71873 5.71178,-1.65883 14.27583,-6.65084 4.86198,-2.83369 5.00903,-2.89096 7.45935,-2.89096 4.53383,0 7.38095,2.88684 7.39281,7.49652 0.01,3.76191 -1.05258,5.2474 -5.64056,7.88707 -5.97131,3.43534 -7.1988,4.12622 -9.32512,5.24846 -11.31262,5.9682 -24.59364,6.48161 -36.62553,1.41529 -2.79807,-1.17847 -4.77378,-2.49394 -7.07392,-3.89091 -0.0382,-0.0232 -0.0736,-0.0507 -0.11136,-0.0743 -0.0404,-0.0251 -0.0834,-0.046 -0.12346,-0.0716 -1.19851,-0.77257 -2.21143,-1.40189 -3.48432,-2.48182 -7.51663,-6.37273 -12.436902,-14.76393 -14.5333,-24.78454 -0.820899,-3.923946 -0.816758,-12.567975 0.0085,-15.958411 0.143336,-0.588721 0.318352,-1.406523 0.389053,-1.817237 1.863653,-10.828635 10.529357,-22.040643 22.106667,-28.602206 0.9236,-0.523197 6.09152,-3.509628 10.5139,-6.075534 1.44574,-0.83896 4.64372,-2.686133 7.10695,-4.104531 2.46272,-1.418399 4.78458,-2.758886 5.15968,-2.979204 0.37461,-0.219804 1.51386,-0.874052 2.53082,-1.453484 1.75226,-0.9984 4.4425,-2.551981 6.81494,-3.935293 0.58872,-0.343636 2.47252,-1.4313 4.18604,-2.417315 1.71354,-0.986017 3.20315,-1.88535 3.30995,-1.998345 0.13672,-0.143959 -2.5974,-0.165624 -9.15121,-0.07275 -9.8834,0.140349 -9.81322,0.137756 -15.33717,0.580467 -3.30738,0.26469 -4.70154,0.408646 -11.33739,1.168151 -3.79031,0.433931 -9.72498,1.248128 -11.48754,1.57577 -0.85651,0.159441 -2.6526,0.459726 -3.99152,0.667662 -3.30272,0.51339 -9.071779,1.524688 -10.027352,1.757389 -0.428244,0.104748 -1.041729,0.228575 -1.362659,0.276043 -0.626911,0.09236 -5.52086,1.013881 -6.327839,1.191889 -0.26779,0.05935 -0.705845,0.144465 -0.973635,0.190391 -0.26779,0.0454 -1.319333,0.264176 -2.336827,0.486558 -1.016966,0.221868 -3.012736,0.629998 -4.434744,0.907075 l -2.584998,0.502551 0.06709,42.861005 c 0.0706,44.983169 0.06709,44.781429 0.890033,48.409729 0.109404,0.4819 0.23889,1.0954 0.287916,1.36318 2.306893,12.63713 11.344087,25.37482 23.933195,33.73405 0.40709,0.26985 0.41019,0.29875 0.0887,0.78891 -0.27914,0.42619 -3.577219,4.57148 -4.798003,6.03066 -0.198657,0.23732 -0.921517,1.13253 -1.607235,1.98906 -1.375577,1.7197 -4.964142,6.16735 -8.246712,10.22236 -1.170228,1.44573 -3.564836,4.42442 -5.32119,6.61986 -1.756355,2.19547 -3.422418,4.25934 -3.702592,4.58698 -1.105717,1.29249 -1.572673,1.91115 -1.498373,1.98546 0.078,0.0781 4.141155,-2.2192 11.11345,-6.28348 1.070629,-0.62432 2.428656,-1.41272 3.017898,-1.75222 1.589699,-0.91689 7.258118,-4.1902 10.805907,-6.24066 1.71356,-0.99012 4.38573,-2.52464 5.93882,-3.40953 1.55253,-0.88539 3.04213,-1.75635 3.30993,-1.93589 0.26779,-0.17903 0.96847,-0.59233 1.55771,-0.91843 0.58872,-0.32557 2.44929,-1.39259 4.13445,-2.37037 1.68515,-0.97828 4.40122,-2.55095 6.0358,-3.49465 1.6346,-0.94424 3.8481,-2.22485 4.91926,-2.84609 4.023,-2.33371 8.08523,-4.68035 11.19549,-6.46766 1.76667,-1.01491 4.65815,-2.68408 6.42535,-3.70826 1.76669,-1.02472 4.00082,-2.31825 4.96465,-2.87447 2.04376,-1.17951 6.41452,-3.70931 11.09849,-6.42382 7.35876,-4.265 9.39786,-5.44141 10.51391,-6.06572 0.64236,-0.35911 1.29971,-0.73784 1.46019,-0.84103 0.16088,-0.1032 0.94937,-0.55517 1.75274,-1.00461 5.34854,-2.99156 8.50934,-5.78812 11.23729,-9.94373 5.84951,-8.90922 6.00946,-20.50924 0.40865,-29.62021 -0.51547,-0.83846 -0.93753,-1.54481 -0.93753,-1.56958 0,-0.0881 -1.48134,-1.760987 -2.82287,-3.18766 -6.55227,-6.967631 -17.63581,-9.886978 -27.11983,-7.143064 -3.53439,1.022135 -3.82024,1.168159 -14.74174,7.524374 -1.67484,0.974144 -2.49471,1.29559 -3.86357,1.51437 -5.832,0.93184 -10.40091,-4.733509 -8.31793,-10.314219 0.76415,-2.047371 2.24703,-3.333668 6.84482,-5.936217 2.07833,-1.176917 4.34809,-2.483359 5.04309,-2.902849 12.41318,-7.495473 26.81491,-8.375191 40.44215,-2.470448 1.55823,0.675404 5.18135,2.71039 5.28248,2.967338 0.0896,0.07937 0.17473,0.124223 0.24612,0.16459 0.14335,0.08094 2.69129,1.754287 3.21757,2.234133 0.12031,0.10999 0.646,0.549506 1.16816,0.977771 2.67995,2.195968 6.90882,6.929451 7.88503,8.825649 0.14763,0.286349 0.3078,0.544748 0.37202,0.618125 1.01387,0.948339 4.48118,8.428857 5.05443,10.903447 0.13632,0.58924 0.32712,1.22386 0.42308,1.41064 0.45096,0.87407 1.16559,6.22157 1.26877,9.49282 0.39833,12.65 -4.34703,24.05909 -13.68607,32.90537 -2.80274,2.65519 -5.48111,4.46881 -12.77022,8.64868 -1.85284,1.06238 -4.61275,2.66136 -6.1333,3.55348 -1.52058,0.8921 -2.81411,1.62169 -2.87498,1.62169 -0.0604,0 -0.56861,0.2941 -1.12945,0.65373 -1.09387,0.7012 -7.2633,4.25624 -8.70957,5.01831 -0.48141,0.25385 -0.91945,0.50977 -0.97313,0.56912 -0.0542,0.0599 -0.84256,0.53608 -1.75325,1.05825 -0.91016,0.52266 -3.01273,1.73726 -4.67261,2.69903 -3.83158,2.22021 -5.865,3.39302 -9.15123,5.27577 -1.44574,0.82865 -2.71605,1.57628 -2.82337,1.66193 -0.10691,0.0851 -0.89571,0.54436 -1.75222,1.0206 -0.85652,0.47573 -2.43384,1.37815 -3.50447,2.00505 -1.07116,0.62639 -2.38275,1.38074 -2.9147,1.67534 -0.94269,0.5227 -0.95507,0.54127 -0.48708,0.72134 0.26469,0.1013 1.40084,0.62174 2.52515,1.15628 1.87657,0.89212 4.2103,1.95448 6.42535,2.924 0.88076,0.38543 2.8337,1.16351 6.18803,2.46375 l 1.80692,0.70069 2.76868,-1.08871 c 1.52263,-0.59904 2.94361,-1.16403 3.15773,-1.25585 0.21465,-0.0919 1.09076,-0.47264 1.94726,-0.84619 0.85652,-0.37305 2.49678,-1.07735 3.64532,-1.56494 2.03757,-0.86529 7.83653,-3.70981 11.73622,-5.75718 1.07116,-0.56242 2.64795,-1.38539 3.50395,-1.83014 0.856,-0.44425 1.64438,-0.87766 1.75222,-0.96384 0.10785,-0.0856 1.02835,-0.64082 2.04532,-1.23367 6.39129,-3.7253 12.83986,-7.80506 16.33298,-10.33279 1.00459,-0.72752 1.92043,-1.35751 2.03498,-1.40033 0.3008,-0.11313 4.11638,-3.04421 5.46308,-4.19689 10.92307,-9.35092 17.20444,-21.70319 18.42061,-36.22411 0.14703,-1.7512 0.19442,-15.24998 0.15424,-43.808325 l -0.0574,-41.277495 -2.92091,-0.603683 c -1.60622,-0.331768 -4.93573,-1.007171 -7.39847,-1.500439 -2.46323,-0.493265 -5.31138,-1.076308 -6.3299,-1.29508 -1.01852,-0.218771 -2.00402,-0.397813 -2.1908,-0.397813 -0.18624,0 -0.33847,-0.04697 -0.33847,-0.104747 0,-0.11094 4.08441,-5.159172 6.70707,-8.289039 0.86218,-1.029357 2.488,-3.000357 3.61229,-4.380575 1.1243,-1.380216 2.18978,-2.684585 2.36728,-2.899227 1.46379,-1.766161 5.39754,-6.546612 6.48932,-7.885549 0.74199,-0.910169 1.90806,-2.334243 2.59173,-3.16392 0.68315,-0.8301955 1.21253,-1.5076637 1.1764,-1.506114 -0.0367,0.00103 -1.38073,0.7569267 -2.98695,1.678445"
       stroke="none"
       fill="#0474dc"
       fill-rule="evenodd"
       style="fill:#0073dd;fill-opacity:1;stroke-width:0.515968" />
  </g>
</svg>
